<svg width="16" height="16" viewBox="0 0 16 16" fill="none" xmlns="http://www.w3.org/2000/svg">
  <defs>
    <linearGradient id="sGradient" x1="0%" y1="0%" x2="100%" y2="100%">
      <stop offset="0%" style="stop-color:#00d4ff;stop-opacity:1" />
      <stop offset="100%" style="stop-color:#0066cc;stop-opacity:1" />
    </linearGradient>
    <linearGradient id="bGradient" x1="0%" y1="0%" x2="100%" y2="100%">
      <stop offset="0%" style="stop-color:#ff6b6b;stop-opacity:1" />
      <stop offset="100%" style="stop-color:#ff3742;stop-opacity:1" />
    </linearGradient>
    <filter id="glow">
      <feGaussianBlur stdDeviation="0.8"/>
    </filter>
  </defs>
  
  <!-- "S" -->
  <path d="M 1 6 C 1 4.5, 2 3.5, 3.5 3.5 C 5 3.5, 5.8 4, 5.8 5 C 5.8 5.5, 5.3 5.8, 4.5 6 L 3.5 6.3 C 2.8 6.5, 2.2 7, 2.2 7.8 C 2.2 8.8, 3 9.5, 4 9.5 C 5.2 9.5, 6 8.8, 6 7.8" 
        fill="url(#sGradient)" 
        filter="url(#glow)" 
        stroke="url(#sGradient)" 
        stroke-width="0.2"/>
  
  <!-- "B" -->
  <path d="M 8 4 L 8 12 L 7.2 12 L 7.2 4 L 10 4 C 11.2 4, 12 4.5, 12 5.5 C 12 6, 11.5 6.3, 11 6.4 C 11.6 6.5, 12.2 7, 12.2 7.8 C 12.2 8.8, 11.4 9.2, 10.2 9.2 L 8 9.2 L 8 8.5 L 10 8.5 C 10.8 8.5, 11.4 8.2, 11.4 7.8 C 11.4 7.3, 10.8 7, 10 7 L 8 7 L 8 6.3 L 9.8 6.3 C 10.5 6.3, 11.2 6, 11.2 5.5 C 11.2 4.8, 10.6 4.7, 10 4.7 L 8 4.7 Z" 
        fill="url(#bGradient)" 
        filter="url(#glow)" 
        stroke="url(#bGradient)" 
        stroke-width="0.2"/>
</svg>
