<svg width="32" height="32" viewBox="0 0 32 32" fill="none" xmlns="http://www.w3.org/2000/svg">
  <defs>
    <!-- Text gradients -->
    <linearGradient id="sGradient" x1="0%" y1="0%" x2="100%" y2="100%">
      <stop offset="0%" style="stop-color:#00d4ff;stop-opacity:1" />
      <stop offset="50%" style="stop-color:#0099ff;stop-opacity:1" />
      <stop offset="100%" style="stop-color:#0066cc;stop-opacity:1" />
    </linearGradient>
    
    <linearGradient id="bGradient" x1="0%" y1="0%" x2="100%" y2="100%">
      <stop offset="0%" style="stop-color:#ff6b6b;stop-opacity:1" />
      <stop offset="50%" style="stop-color:#ff4757;stop-opacity:1" />
      <stop offset="100%" style="stop-color:#ff3742;stop-opacity:1" />
    </linearGradient>
    
    <!-- Glow effects -->
    <filter id="glow" x="-50%" y="-50%" width="200%" height="200%">
      <feGaussianBlur stdDeviation="1.5" result="coloredBlur"/>
      <feMerge> 
        <feMergeNode in="coloredBlur"/>
        <feMergeNode in="SourceGraphic"/>
      </feMerge>
    </filter>
  </defs>
  
  <!-- Letter "S" - Bold and stylish -->
  <path d="M 4 12 
           C 4 9, 6.5 7.5, 9.5 7.5
           C 12 7.5, 13.5 8.5, 13.5 10.2
           C 13.5 11.5, 12.5 12.2, 11 12.6
           L 8.5 13.4
           C 7.2 13.8, 6.5 14.5, 6.5 15.8
           C 6.5 17.5, 8 18.5, 10 18.5
           C 12.5 18.5, 14 17, 14 15.2
           L 12.5 15.2
           C 12.5 16.2, 11.5 17, 10 17
           C 8.7 17, 8 16.5, 8 15.8
           C 8 15, 8.5 14.5, 9.5 14.2
           L 12 13.4
           C 13.5 13, 14.5 11.8, 14.5 10.2
           C 14.5 8, 12.5 6, 9.5 6
           C 6 6, 4 8, 4 12
           Z" 
        fill="url(#sGradient)" 
        filter="url(#glow)"
        stroke="url(#sGradient)" 
        stroke-width="0.3"/>
  
  <!-- Letter "B" - Bold and stylish -->
  <path d="M 17.5 8 
           L 17.5 24
           L 16 24
           L 16 8
           L 22 8
           C 24.5 8, 26 9, 26 10.8
           C 26 12, 25 12.8, 23.8 13
           C 25.2 13.2, 26.2 14.2, 26.2 15.8
           C 26.2 17.8, 24.5 19, 22.2 19
           L 17.5 19
           L 17.5 17.5
           L 22 17.5
           C 23.8 17.5, 24.7 16.8, 24.7 15.8
           C 24.7 14.7, 23.7 14, 22 14
           L 17.5 14
           L 17.5 12.5
           L 21.8 12.5
           C 23.5 12.5, 24.5 11.8, 24.5 10.8
           C 24.5 9.5, 23.5 9.5, 22 9.5
           L 17.5 9.5
           Z" 
        fill="url(#bGradient)" 
        filter="url(#glow)"
        stroke="url(#bGradient)" 
        stroke-width="0.3"/>
</svg>
