<svg width="32" height="32" viewBox="0 0 32 32" fill="none" xmlns="http://www.w3.org/2000/svg">
  <defs>
    <!-- Background gradients -->
    <radialGradient id="bgGradient" cx="50%" cy="50%" r="70%">
      <stop offset="0%" style="stop-color:#1a1a2e;stop-opacity:1" />
      <stop offset="70%" style="stop-color:#0f0f1a;stop-opacity:1" />
      <stop offset="100%" style="stop-color:#0a0a0f;stop-opacity:1" />
    </radialGradient>
    
    <!-- Text gradients -->
    <linearGradient id="sGradient" x1="0%" y1="0%" x2="100%" y2="100%">
      <stop offset="0%" style="stop-color:#00d4ff;stop-opacity:1" />
      <stop offset="50%" style="stop-color:#0099ff;stop-opacity:1" />
      <stop offset="100%" style="stop-color:#0066cc;stop-opacity:1" />
    </linearGradient>
    
    <linearGradient id="bGradient" x1="0%" y1="0%" x2="100%" y2="100%">
      <stop offset="0%" style="stop-color:#ff6b6b;stop-opacity:1" />
      <stop offset="50%" style="stop-color:#ff4757;stop-opacity:1" />
      <stop offset="100%" style="stop-color:#ff3742;stop-opacity:1" />
    </linearGradient>
    
    <!-- Glow effects -->
    <filter id="glow" x="-50%" y="-50%" width="200%" height="200%">
      <feGaussianBlur stdDeviation="1.2" result="coloredBlur"/>
      <feMerge> 
        <feMergeNode in="coloredBlur"/>
        <feMergeNode in="SourceGraphic"/>
      </feMerge>
    </filter>
    
    <filter id="strongGlow" x="-100%" y="-100%" width="300%" height="300%">
      <feGaussianBlur stdDeviation="2" result="coloredBlur"/>
      <feMerge> 
        <feMergeNode in="coloredBlur"/>
        <feMergeNode in="SourceGraphic"/>
      </feMerge>
    </filter>
  </defs>
  
  <!-- Background with rounded corners -->
  <rect width="32" height="32" rx="8" fill="url(#bgGradient)" stroke="#333" stroke-width="0.3"/>
  
  <!-- Subtle background pattern -->
  <circle cx="8" cy="8" r="1" fill="#00d4ff" opacity="0.1"/>
  <circle cx="24" cy="8" r="0.8" fill="#ff6b6b" opacity="0.1"/>
  <circle cx="8" cy="24" r="0.6" fill="#00d4ff" opacity="0.08"/>
  <circle cx="24" cy="24" r="1.2" fill="#ff6b6b" opacity="0.12"/>
  
  <!-- Letter "S" -->
  <path d="M 6 10 
           C 6 8, 8 7, 11 7
           C 13 7, 14 8, 14 9.5
           C 14 10.5, 13 11, 11.5 11.2
           L 9.5 11.8
           C 8.2 12.1, 7.5 12.8, 7.5 14
           C 7.5 15.2, 8.5 16, 10.5 16
           C 12.5 16, 13.5 15, 13.5 13.8
           L 12.2 13.8
           C 12.2 14.5, 11.5 15, 10.5 15
           C 9.3 15, 8.8 14.5, 8.8 14
           C 8.8 13.4, 9.2 13, 10.2 12.8
           L 12.2 12.2
           C 13.5 11.9, 14.3 11, 14.3 9.5
           C 14.3 7.8, 12.8 6, 11 6
           C 8.5 6, 6.7 7.5, 6.7 10
           Z" 
        fill="url(#sGradient)" 
        filter="url(#glow)"/>
  
  <!-- Letter "B" -->
  <path d="M 17 7 
           L 17 21
           L 16 21
           L 16 7
           L 20.5 7
           C 22.5 7, 23.5 7.8, 23.5 9.2
           C 23.5 10.2, 22.8 10.8, 22 11
           C 23 11.2, 23.8 12, 23.8 13.2
           C 23.8 14.8, 22.5 15.5, 20.8 15.5
           L 17 15.5
           L 17 14.5
           L 20.5 14.5
           C 21.8 14.5, 22.5 14, 22.5 13.2
           C 22.5 12.3, 21.7 11.8, 20.3 11.8
           L 17 11.8
           L 17 10.8
           L 20.2 10.8
           C 21.5 10.8, 22.2 10.3, 22.2 9.2
           C 22.2 8.3, 21.6 7.8, 20.5 7.8
           L 17 7.8
           Z" 
        fill="url(#bGradient)" 
        filter="url(#glow)"/>
  
  <!-- Enhanced glow around letters -->
  <path d="M 6 10 
           C 6 8, 8 7, 11 7
           C 13 7, 14 8, 14 9.5
           C 14 10.5, 13 11, 11.5 11.2
           L 9.5 11.8
           C 8.2 12.1, 7.5 12.8, 7.5 14
           C 7.5 15.2, 8.5 16, 10.5 16
           C 12.5 16, 13.5 15, 13.5 13.8" 
        fill="none" 
        stroke="url(#sGradient)" 
        stroke-width="0.3" 
        opacity="0.6"
        filter="url(#strongGlow)"/>
        
  <path d="M 17 7 L 17 21 M 17 7 L 20.5 7 C 22.5 7, 23.5 7.8, 23.5 9.2 M 17 15.5 L 20.8 15.5 C 22.5 15.5, 23.8 14.8, 23.8 13.2" 
        fill="none" 
        stroke="url(#bGradient)" 
        stroke-width="0.3" 
        opacity="0.6"
        filter="url(#strongGlow)"/>
  
  <!-- Corner accents -->
  <rect x="2" y="2" width="2" height="0.5" rx="0.25" fill="#00d4ff" opacity="0.8"/>
  <rect x="28" y="2" width="0.5" height="2" rx="0.25" fill="#ff6b6b" opacity="0.8"/>
  <rect x="2" y="29.5" width="0.5" height="0.5" rx="0.25" fill="#00d4ff" opacity="0.6"/>
  <rect x="29.5" y="28" width="0.5" height="2" rx="0.25" fill="#ff6b6b" opacity="0.9"/>
</svg>
